<svg width="619.8847900390625px" height="146.4000030517578px" xmlns="http://www.w3.org/2000/svg" viewBox="-59.94239501953126 1.7999984741210966 619.8847900390625 146.4000030517578" style="background: rgba(0, 0, 0, 0);" preserveAspectRatio="xMidYMid"><defs><filter id="editing-raise" x="-100%" y="-100%" width="300%" height="300%"><feFlood flood-color="#ccc" result="flood-surface"></feFlood><feFlood flood-color="#777" result="flood-extrude"></feFlood><feMorphology operator="erode" in="SourceAlpha" radius="1" result="erode"></feMorphology><feConvolveMatrix in="erode" result="shadow" order="11,8" divisor="1" kernelMatrix="0 0 0 1 1 1 1 1 0 0 0 0 0 1 0 0 0 0 0 1 0 0 0 0 1 0 0 0 0 0 1 0 0 0 0 1 0 0 0 0 0 1 0 0 0 0 1 0 0 0 0 0 1 0 0 0 0 0 1 0 0 0 1 0 0 0 0 0 0 1 1 0 1 1 0 0 0 0 0 0 0 0 1 0 0 0 0 0"></feConvolveMatrix><feOffset dx="0" dy="4" in="shadow" result="offset"></feOffset><feGaussianBlur in="offset" stdDeviation="0.2" result="blur"></feGaussianBlur><feComposite operator="in" in="flood-extrude" in2="blur" result="extrude"></feComposite><feMorphology operator="erode" in="SourceAlpha" radius="1" result="erode2"></feMorphology><feConvolveMatrix in="erode2" result="out" order="4,4" divisor="1" kernelMatrix="0 1 1 0 1 0 0 1 1 0 0 1 0 1 1 0 "></feConvolveMatrix><feComposite operator="in" in="flood-surface" in2="out" result="text"></feComposite><feMerge><feMergeNode in="extrude"></feMergeNode><feMergeNode in="text"></feMergeNode></feMerge></filter></defs><g filter="url(#editing-raise)"><g transform="translate(36.24979305267334, 109.79999351501465)"><path d="M-8.72 11.04L-8.72 11.04L-8.72 11.04Q-4.64 10.56-2.08 5.28L-2.08 5.28L-2.08 5.28Q0.56-0.08 2.96-12.40L2.96-12.40L10.72-52.80L28.08-52.80L20.32-12.40L20.32-12.40Q17.36 3.28 12.48 9.44L12.48 9.44L12.48 9.44Q9.92 12.64 6.68 13.92L6.68 13.92L6.68 13.92Q3.44 15.20-0.08 15.20L-0.08 15.20L-0.08 15.20Q-3.60 15.20-5.88 13.92L-5.88 13.92L-5.88 13.92Q-8.16 12.64-8.72 11.04ZM64.96 1.60L64.96 1.60L64.96 1.60Q54.72 1.60 53.76-12.96L53.76-12.96L40-12.96L40-12.96Q38.40-9.28 37.28-6.08L37.28-6.08L35.20 0L24 0L49.20-52.80L66.40-52.80L69.76-13.92L69.76-13.92Q70.56-5.52 73.76-3.04L73.76-3.04L73.76-3.04Q71.44 1.60 64.96 1.60ZM46.88-28.96L42.48-18.80L53.52-18.80L52.56-39.36L52.56-41.52L46.88-28.96ZM119.28-16.56L119.28-16.56L119.28-16.56Q121.36-15.04 121.36-11.80L121.36-11.80L121.36-11.80Q121.36-8.56 119.96-6.28L119.96-6.28L119.96-6.28Q118.56-4 115.84-2.24L115.84-2.24L115.84-2.24Q110.00 1.52 99.80 1.52L99.80 1.52L99.80 1.52Q89.60 1.52 84.04-3.80L84.04-3.80L84.04-3.80Q78.48-9.12 78.48-18.56L78.48-18.56L78.48-18.56Q78.48-31.92 85.44-42.08L85.44-42.08L85.44-42.08Q90.72-49.60 100.16-52.80L100.16-52.80L100.16-52.80Q105.04-54.40 109.84-54.40L109.84-54.40L109.84-54.40Q114.64-54.40 117.60-53.76L117.60-53.76L117.60-53.76Q120.56-53.12 122.80-51.84L122.80-51.84L122.80-51.84Q127.68-49.04 127.68-44.56L127.68-44.56L127.68-44.56Q127.68-40.48 123.84-37.44L123.84-37.44L123.84-37.44Q120.32-34.72 117.44-34.72L117.44-34.72L117.44-34.72Q114.56-34.72 113.36-35.12L113.36-35.12L113.36-35.12Q113.68-38 113.68-39.88L113.68-39.88L113.68-39.88Q113.68-41.76 113.60-43.12L113.60-43.12L113.60-43.12Q113.52-44.48 113.12-45.76L113.12-45.76L113.12-45.76Q112.32-48.72 109.88-48.72L109.88-48.72L109.88-48.72Q107.44-48.72 105.00-46.44L105.00-46.44L105.00-46.44Q102.56-44.16 100.48-40.32L100.48-40.32L100.48-40.32Q95.76-31.60 95.76-21.28L95.76-21.28L95.76-21.28Q95.76-16.32 98.56-13.48L98.56-13.48L98.56-13.48Q101.36-10.64 107.36-10.64L107.36-10.64L107.36-10.64Q111.84-10.64 116.08-13.60L116.08-13.60L116.08-13.60Q117.92-14.88 119.28-16.56ZM144.32 0L127.28 0L136.40-48.64L137.28-52.80L154.40-52.80L144.32 0ZM176.80-4.72L176.80-4.72L176.80-4.72Q174.64 1.60 166.32 1.60L166.32 1.60L166.32 1.60Q160.16 1.60 155.92-5.76L155.92-5.76L155.92-5.76Q151.60-13.12 150.80-25.12L150.80-25.12L150.80-25.12Q159.60-41.20 165.68-47.84L165.68-47.84L165.68-47.84Q171.52-54.16 177.60-54.16L177.60-54.16L177.60-54.16Q180.88-54.16 183.24-52.40L183.24-52.40L183.24-52.40Q185.60-50.64 186.16-47.84L186.16-47.84L186.16-47.84Q183.44-46.72 182.16-45.84L182.16-45.84L182.16-45.84Q178.96-43.44 174.64-38.08L174.64-38.08L167.36-29.36L167.36-29.36Q165.60-27.28 164.88-26.32L164.88-26.32L164.88-26.32Q166.08-19.60 169.68-12.96L169.68-12.96L169.68-12.96Q173.12-6.64 176.80-4.72ZM182.80-0.40L182.80-0.40L192.88-52.80L192.88-52.80Q202.32-53.60 208.40-53.60L208.40-53.60L208.40-53.60Q214.48-53.60 218.40-53.08L218.40-53.08L218.40-53.08Q222.32-52.56 224.96-51.20L224.96-51.20L224.96-51.20Q230.24-48.64 230.24-41.60L230.24-41.60L230.24-41.60Q230.24-37.52 226.72-34.08L226.72-34.08L226.72-34.08Q223.44-30.96 219.84-30.24L219.84-30.24L219.84-30.24Q223.68-29.60 226.40-26.72L226.40-26.72L226.40-26.72Q229.28-23.68 229.28-18.96L229.28-18.96L229.28-18.96Q229.28-9.84 222.48-4.52L222.48-4.52L222.48-4.52Q215.68 0.80 202.32 0.80L202.32 0.80L202.32 0.80Q193.12 0.80 182.80-0.40ZM204.56-25.76L200.56-5.04L200.56-5.04Q201.28-4.96 201.44-4.96L201.44-4.96L202.16-4.96L202.16-4.96Q208.72-4.96 211.52-9.28L211.52-9.28L211.52-9.28Q213.60-12.64 213.60-18.80L213.60-18.80L213.60-18.80Q213.60-22.08 211.48-23.84L211.48-23.84L211.48-23.84Q209.36-25.60 204.56-25.76L204.56-25.76ZM216.72-41.52L216.72-41.52L216.72-41.52Q216.72-48.16 210.32-48.16L210.32-48.16L209.60-48.16L209.60-48.16Q209.28-48.16 208.80-48.08L208.80-48.08L205.60-31.20L206.40-31.20L206.40-31.20Q216.72-31.44 216.72-41.52ZM268-12.32L268-12.32L268-12.32Q269.52-10.40 269.52-6.68L269.52-6.68L269.52-6.68Q269.52-2.96 266.68-0.68L266.68-0.68L266.68-0.68Q263.84 1.60 258.88 1.60L258.88 1.60L258.88 1.60Q256 1.60 251.52 0.96L251.52 0.96L251.52 0.96Q242.72-0.40 240.20-0.40L240.20-0.40L240.20-0.40Q237.68-0.40 236.64-0.28L236.64-0.28L236.64-0.28Q235.60-0.16 233.92 0L233.92 0L243.60-52.80L261.12-52.80L253.12-8.80L253.12-8.80Q254.16-8.64 255.12-8.64L255.12-8.64L257.12-8.64L257.12-8.64Q263.84-8.64 268-12.32ZM310.00 1.60L310.00 1.60L310.00 1.60Q299.76 1.60 298.80-12.96L298.80-12.96L285.04-12.96L285.04-12.96Q283.44-9.28 282.32-6.08L282.32-6.08L280.24 0L269.04 0L294.24-52.80L311.44-52.80L314.80-13.92L314.80-13.92Q315.60-5.52 318.80-3.04L318.80-3.04L318.80-3.04Q316.48 1.60 310.00 1.60ZM291.92-28.96L287.52-18.80L298.56-18.80L297.60-39.36L297.60-41.52L291.92-28.96ZM364.32-16.56L364.32-16.56L364.32-16.56Q366.40-15.04 366.40-11.80L366.40-11.80L366.40-11.80Q366.40-8.56 365.00-6.28L365.00-6.28L365.00-6.28Q363.60-4 360.88-2.24L360.88-2.24L360.88-2.24Q355.04 1.52 344.84 1.52L344.84 1.52L344.84 1.52Q334.64 1.52 329.08-3.80L329.08-3.80L329.08-3.80Q323.52-9.12 323.52-18.56L323.52-18.56L323.52-18.56Q323.52-31.92 330.48-42.08L330.48-42.08L330.48-42.08Q335.76-49.60 345.20-52.80L345.20-52.80L345.20-52.80Q350.08-54.40 354.88-54.40L354.88-54.40L354.88-54.40Q359.68-54.40 362.64-53.76L362.64-53.76L362.64-53.76Q365.60-53.12 367.84-51.84L367.84-51.84L367.84-51.84Q372.72-49.04 372.72-44.56L372.72-44.56L372.72-44.56Q372.72-40.48 368.88-37.44L368.88-37.44L368.88-37.44Q365.36-34.72 362.48-34.72L362.48-34.72L362.48-34.72Q359.60-34.72 358.40-35.12L358.40-35.12L358.40-35.12Q358.72-38 358.72-39.88L358.72-39.88L358.72-39.88Q358.72-41.76 358.64-43.12L358.64-43.12L358.64-43.12Q358.56-44.48 358.16-45.76L358.16-45.76L358.16-45.76Q357.36-48.72 354.92-48.72L354.92-48.72L354.92-48.72Q352.48-48.72 350.04-46.44L350.04-46.44L350.04-46.44Q347.60-44.16 345.52-40.32L345.52-40.32L345.52-40.32Q340.80-31.60 340.80-21.28L340.80-21.28L340.80-21.28Q340.80-16.32 343.60-13.48L343.60-13.48L343.60-13.48Q346.40-10.64 352.40-10.64L352.40-10.64L352.40-10.64Q356.88-10.64 361.12-13.60L361.12-13.60L361.12-13.60Q362.96-14.88 364.32-16.56ZM389.36 0L372.32 0L381.44-48.64L382.32-52.80L399.44-52.80L389.36 0ZM421.84-4.72L421.84-4.72L421.84-4.72Q419.68 1.60 411.36 1.60L411.36 1.60L411.36 1.60Q405.20 1.60 400.96-5.76L400.96-5.76L400.96-5.76Q396.64-13.12 395.84-25.12L395.84-25.12L395.84-25.12Q404.64-41.20 410.72-47.84L410.72-47.84L410.72-47.84Q416.56-54.16 422.64-54.16L422.64-54.16L422.64-54.16Q425.92-54.16 428.28-52.40L428.28-52.40L428.28-52.40Q430.64-50.64 431.20-47.84L431.20-47.84L431.20-47.84Q428.48-46.72 427.20-45.84L427.20-45.84L427.20-45.84Q424.00-43.44 419.68-38.08L419.68-38.08L412.40-29.36L412.40-29.36Q410.64-27.28 409.92-26.32L409.92-26.32L409.92-26.32Q411.12-19.60 414.72-12.96L414.72-12.96L414.72-12.96Q418.16-6.64 421.84-4.72Z"></path></g></g><style>text {
  font-size: 64px;
  font-family: Arial Black;
  dominant-baseline: central;
  text-anchor: middle;
}</style></svg>