<svg width="500.387744140625px" height="121.60000610351562px" xmlns="http://www.w3.org/2000/svg" viewBox="-0.19387207031249432 14.199996948242188 500.387744140625 121.60000610351562" style="background:#f2eddb" preserveAspectRatio="xMidYMid"><defs><filter id="editing-vintage" x="-100%" y="-100%" width="300%" height="300%"><feConvolveMatrix in="SourceGraphic" result="extrude" order="9,9" divisor="1" kernelMatrix="1,0,0,0,0,0,0,0,0,0,1,0,0,0,0,0,0,0,0,0,1,0,0,0,0,0,0,0,0,0,1,0,0,0,0,0,0,0,0,0,1,0,0,0,0,0,0,0,0,0,1,0,0,0,0,0,0,0,0,0,1,0,0,0,0,0,0,0,0,0,1,0,0,0,0,0,0,0,0,0,1"> </feConvolveMatrix><feFlood flood-color="#900" result="flood-extrude"></feFlood><feComposite operator="in" in="flood-extrude" in2="extrude" result="extrude-color"></feComposite><feOffset dx="5" dy="5" in="extrude-color" result="extrude-offset"></feOffset><feColorMatrix in="SourceGraphic" result="stroke" type="matrix" values="0 0 0 0 0 0 0 0 0 0 0 0 0 0 0 0 1 0 0 0 "></feColorMatrix><feColorMatrix in="SourceGraphic" result="fill" type="matrix" values="0 0 0 0 0 0 0 0 0 0 0 0 0 0 0 1 0 0 1 0 "></feColorMatrix><feConvolveMatrix in="stroke" result="inner-shadow" order="5,5" divisor="1" kernelMatrix="1 0 0 0 0 0 1 0 0 0 0 0 1 0 0 0 0 0 1 0 0 0 0 0 1 "></feConvolveMatrix><feOffset dx="1" dy="1" in="inner-shadow" result="offset"></feOffset><feComposite operator="in" in="offset" in2="SourceAlpha" result="comp"></feComposite><feFlood flood-color="#000" result="flood3"></feFlood><feComposite operator="in" in="flood3" in2="comp" result="comp2"></feComposite><feColorMatrix in="comp2" result="comp3" type="matrix" values="1 0 0 0 0 0 1 0 0 0 0 0 1 0 0 0 0 0 0.5 0 "></feColorMatrix><feFlood flood-color="#f00" result="flood1"></feFlood><feComposite operator="in" in="flood1" in2="fill" result="fill2"></feComposite><feFlood flood-color="#fff" result="flood2"></feFlood><feComposite operator="in" in="flood2" in2="stroke" result="stroke2"></feComposite><feMerge result="obj"><feMergeNode in="extrude-offset"></feMergeNode><feMergeNode in="fill2"></feMergeNode><feMergeNode in="comp3"></feMergeNode></feMerge><feConvolveMatrix in="SourceAlpha" result="shadow" order="9,9" divisor="1" kernelMatrix="1,0,0,0,0,0,0,0,0,0,1,0,0,0,0,0,0,0,0,0,1,0,0,0,0,0,0,0,0,0,1,0,0,0,0,0,0,0,0,0,1,0,0,0,0,0,0,0,0,0,1,0,0,0,0,0,0,0,0,0,1,0,0,0,0,0,0,0,0,0,1,0,0,0,0,0,0,0,0,0,1"></feConvolveMatrix><feOffset dx="15" dy="15" in="shadow" result="shadow-offset"></feOffset><feFlood flood-color="#444" result="flood-shadow"></feFlood><feComposite operator="in" in="flood-shadow" in2="shadow-offset" result="shadow-color"></feComposite><feMerge><feMergeNode in="shadow-color"></feMergeNode><feMergeNode in="obj"></feMergeNode></feMerge></filter></defs><g transform="translate(-9,-9)"><g filter="url(#editing-vintage)"><g transform="translate(79.06155824661255, 102.83999633789062)"><path d="M-6.98 8.83L-6.98 8.83L-6.98 8.83Q-3.71 8.45-1.66 4.22L-1.66 4.22L-1.66 4.22Q0.45-0.06 2.37-9.92L2.37-9.92L8.58-42.24L22.46-42.24L16.26-9.92L16.26-9.92Q13.89 2.62 9.98 7.55L9.98 7.55L9.98 7.55Q7.94 10.11 5.34 11.14L5.34 11.14L5.34 11.14Q2.75 12.16-0.06 12.16L-0.06 12.16L-0.06 12.16Q-2.88 12.16-4.70 11.14L-4.70 11.14L-4.70 11.14Q-6.53 10.11-6.98 8.83ZM51.97 1.28L51.97 1.28L51.97 1.28Q43.78 1.28 43.01-10.37L43.01-10.37L32-10.37L32-10.37Q30.72-7.42 29.82-4.86L29.82-4.86L28.16 0L19.20 0L39.36-42.24L53.12-42.24L55.81-11.14L55.81-11.14Q56.45-4.42 59.01-2.43L59.01-2.43L59.01-2.43Q57.15 1.28 51.97 1.28ZM37.50-23.17L33.98-15.04L42.82-15.04L42.05-31.49L42.05-33.22L37.50-23.17ZM95.42-13.25L95.42-13.25L95.42-13.25Q97.09-12.03 97.09-9.44L97.09-9.44L97.09-9.44Q97.09-6.85 95.97-5.02L95.97-5.02L95.97-5.02Q94.85-3.20 92.67-1.79L92.67-1.79L92.67-1.79Q88 1.22 79.84 1.22L79.84 1.22L79.84 1.22Q71.68 1.22 67.23-3.04L67.23-3.04L67.23-3.04Q62.78-7.30 62.78-14.85L62.78-14.85L62.78-14.85Q62.78-25.54 68.35-33.66L68.35-33.66L68.35-33.66Q72.58-39.68 80.13-42.24L80.13-42.24L80.13-42.24Q84.03-43.52 87.87-43.52L87.87-43.52L87.87-43.52Q91.71-43.52 94.08-43.01L94.08-43.01L94.08-43.01Q96.45-42.50 98.24-41.47L98.24-41.47L98.24-41.47Q102.14-39.23 102.14-35.65L102.14-35.65L102.14-35.65Q102.14-32.38 99.07-29.95L99.07-29.95L99.07-29.95Q96.26-27.78 93.95-27.78L93.95-27.78L93.95-27.78Q91.65-27.78 90.69-28.10L90.69-28.10L90.69-28.10Q90.94-30.40 90.94-31.90L90.94-31.90L90.94-31.90Q90.94-33.41 90.88-34.50L90.88-34.50L90.88-34.50Q90.82-35.58 90.50-36.61L90.50-36.61L90.50-36.61Q89.86-38.98 87.90-38.98L87.90-38.98L87.90-38.98Q85.95-38.98 84-37.15L84-37.15L84-37.15Q82.05-35.33 80.38-32.26L80.38-32.26L80.38-32.26Q76.61-25.28 76.61-17.02L76.61-17.02L76.61-17.02Q76.61-13.06 78.85-10.78L78.85-10.78L78.85-10.78Q81.09-8.51 85.89-8.51L85.89-8.51L85.89-8.51Q89.47-8.51 92.86-10.88L92.86-10.88L92.86-10.88Q94.34-11.90 95.42-13.25ZM115.46 0L101.82 0L109.12-38.91L109.82-42.24L123.52-42.24L115.46 0ZM141.44-3.78L141.44-3.78L141.44-3.78Q139.71 1.28 133.06 1.28L133.06 1.28L133.06 1.28Q128.13 1.28 124.74-4.61L124.74-4.61L124.74-4.61Q121.28-10.50 120.64-20.10L120.64-20.10L120.64-20.10Q127.68-32.96 132.54-38.27L132.54-38.27L132.54-38.27Q137.22-43.33 142.08-43.33L142.08-43.33L142.08-43.33Q144.70-43.33 146.59-41.92L146.59-41.92L146.59-41.92Q148.48-40.51 148.93-38.27L148.93-38.27L148.93-38.27Q146.75-37.38 145.73-36.67L145.73-36.67L145.73-36.67Q143.17-34.75 139.71-30.46L139.71-30.46L133.89-23.49L133.89-23.49Q132.48-21.82 131.90-21.06L131.90-21.06L131.90-21.06Q132.86-15.68 135.74-10.37L135.74-10.37L135.74-10.37Q138.50-5.31 141.44-3.78ZM146.24-0.32L146.24-0.32L154.30-42.24L154.30-42.24Q161.86-42.88 166.72-42.88L166.72-42.88L166.72-42.88Q171.58-42.88 174.72-42.46L174.72-42.46L174.72-42.46Q177.86-42.05 179.97-40.96L179.97-40.96L179.97-40.96Q184.19-38.91 184.19-33.28L184.19-33.28L184.19-33.28Q184.19-30.02 181.38-27.26L181.38-27.26L181.38-27.26Q178.75-24.77 175.87-24.19L175.87-24.19L175.87-24.19Q178.94-23.68 181.12-21.38L181.12-21.38L181.12-21.38Q183.42-18.94 183.42-15.17L183.42-15.17L183.42-15.17Q183.42-7.87 177.98-3.62L177.98-3.62L177.98-3.62Q172.54 0.64 161.86 0.64L161.86 0.64L161.86 0.64Q154.50 0.64 146.24-0.32ZM163.65-20.61L160.45-4.03L160.45-4.03Q161.02-3.97 161.15-3.97L161.15-3.97L161.73-3.97L161.73-3.97Q166.98-3.97 169.22-7.42L169.22-7.42L169.22-7.42Q170.88-10.11 170.88-15.04L170.88-15.04L170.88-15.04Q170.88-17.66 169.18-19.07L169.18-19.07L169.18-19.07Q167.49-20.48 163.65-20.61L163.65-20.61ZM173.38-33.22L173.38-33.22L173.38-33.22Q173.38-38.53 168.26-38.53L168.26-38.53L167.68-38.53L167.68-38.53Q167.42-38.53 167.04-38.46L167.04-38.46L164.48-24.96L165.12-24.96L165.12-24.96Q173.38-25.15 173.38-33.22ZM214.40-9.86L214.40-9.86L214.40-9.86Q215.62-8.32 215.62-5.34L215.62-5.34L215.62-5.34Q215.62-2.37 213.34-0.54L213.34-0.54L213.34-0.54Q211.07 1.28 207.10 1.28L207.10 1.28L207.10 1.28Q204.80 1.28 201.22 0.77L201.22 0.77L201.22 0.77Q194.18-0.32 192.16-0.32L192.16-0.32L192.16-0.32Q190.14-0.32 189.31-0.22L189.31-0.22L189.31-0.22Q188.48-0.13 187.14 0L187.14 0L194.88-42.24L208.90-42.24L202.50-7.04L202.50-7.04Q203.33-6.91 204.10-6.91L204.10-6.91L205.70-6.91L205.70-6.91Q211.07-6.91 214.40-9.86ZM248 1.28L248 1.28L248 1.28Q239.81 1.28 239.04-10.37L239.04-10.37L228.03-10.37L228.03-10.37Q226.75-7.42 225.86-4.86L225.86-4.86L224.19 0L215.23 0L235.39-42.24L249.15-42.24L251.84-11.14L251.84-11.14Q252.48-4.42 255.04-2.43L255.04-2.43L255.04-2.43Q253.18 1.28 248 1.28ZM233.54-23.17L230.02-15.04L238.85-15.04L238.08-31.49L238.08-33.22L233.54-23.17ZM291.46-13.25L291.46-13.25L291.46-13.25Q293.12-12.03 293.12-9.44L293.12-9.44L293.12-9.44Q293.12-6.85 292-5.02L292-5.02L292-5.02Q290.88-3.20 288.70-1.79L288.70-1.79L288.70-1.79Q284.03 1.22 275.87 1.22L275.87 1.22L275.87 1.22Q267.71 1.22 263.26-3.04L263.26-3.04L263.26-3.04Q258.82-7.30 258.82-14.85L258.82-14.85L258.82-14.85Q258.82-25.54 264.38-33.66L264.38-33.66L264.38-33.66Q268.61-39.68 276.16-42.24L276.16-42.24L276.16-42.24Q280.06-43.52 283.90-43.52L283.90-43.52L283.90-43.52Q287.74-43.52 290.11-43.01L290.11-43.01L290.11-43.01Q292.48-42.50 294.27-41.47L294.27-41.47L294.27-41.47Q298.18-39.23 298.18-35.65L298.18-35.65L298.18-35.65Q298.18-32.38 295.10-29.95L295.10-29.95L295.10-29.95Q292.29-27.78 289.98-27.78L289.98-27.78L289.98-27.78Q287.68-27.78 286.72-28.10L286.72-28.10L286.72-28.10Q286.98-30.40 286.98-31.90L286.98-31.90L286.98-31.90Q286.98-33.41 286.91-34.50L286.91-34.50L286.91-34.50Q286.85-35.58 286.53-36.61L286.53-36.61L286.53-36.61Q285.89-38.98 283.94-38.98L283.94-38.98L283.94-38.98Q281.98-38.98 280.03-37.15L280.03-37.15L280.03-37.15Q278.08-35.33 276.42-32.26L276.42-32.26L276.42-32.26Q272.64-25.28 272.64-17.02L272.64-17.02L272.64-17.02Q272.64-13.06 274.88-10.78L274.88-10.78L274.88-10.78Q277.12-8.51 281.92-8.51L281.92-8.51L281.92-8.51Q285.50-8.51 288.90-10.88L288.90-10.88L288.90-10.88Q290.37-11.90 291.46-13.25ZM311.49 0L297.86 0L305.15-38.91L305.86-42.24L319.55-42.24L311.49 0ZM337.47-3.78L337.47-3.78L337.47-3.78Q335.74 1.28 329.09 1.28L329.09 1.28L329.09 1.28Q324.16 1.28 320.77-4.61L320.77-4.61L320.77-4.61Q317.31-10.50 316.67-20.10L316.67-20.10L316.67-20.10Q323.71-32.96 328.58-38.27L328.58-38.27L328.58-38.27Q333.25-43.33 338.11-43.33L338.11-43.33L338.11-43.33Q340.74-43.33 342.62-41.92L342.62-41.92L342.62-41.92Q344.51-40.51 344.96-38.27L344.96-38.27L344.96-38.27Q342.78-37.38 341.76-36.67L341.76-36.67L341.76-36.67Q339.20-34.75 335.74-30.46L335.74-30.46L329.92-23.49L329.92-23.49Q328.51-21.82 327.94-21.06L327.94-21.06L327.94-21.06Q328.90-15.68 331.78-10.37L331.78-10.37L331.78-10.37Q334.53-5.31 337.47-3.78Z" fill="#f00" stroke="#0f0" stroke-width="1.8"></path></g></g><g><g transform="translate(79.10389375686646, 102.84000396728516)"><path d="M-6.98 8.83L-6.98 8.83L-6.98 8.83Q-3.71 8.45-1.66 4.22L-1.66 4.22L-1.66 4.22Q0.45-0.06 2.37-9.92L2.37-9.92L8.58-42.24L22.46-42.24L16.26-9.92L16.26-9.92Q13.89 2.62 9.98 7.55L9.98 7.55L9.98 7.55Q7.94 10.11 5.34 11.14L5.34 11.14L5.34 11.14Q2.75 12.16-0.06 12.16L-0.06 12.16L-0.06 12.16Q-2.88 12.16-4.70 11.14L-4.70 11.14L-4.70 11.14Q-6.53 10.11-6.98 8.83ZM51.97 1.28L51.97 1.28L51.97 1.28Q43.78 1.28 43.01-10.37L43.01-10.37L32-10.37L32-10.37Q30.72-7.42 29.82-4.86L29.82-4.86L28.16 0L19.20 0L39.36-42.24L53.12-42.24L55.81-11.14L55.81-11.14Q56.45-4.42 59.01-2.43L59.01-2.43L59.01-2.43Q57.15 1.28 51.97 1.28ZM37.50-23.17L33.98-15.04L42.82-15.04L42.05-31.49L42.05-33.22L37.50-23.17ZM95.42-13.25L95.42-13.25L95.42-13.25Q97.09-12.03 97.09-9.44L97.09-9.44L97.09-9.44Q97.09-6.85 95.97-5.02L95.97-5.02L95.97-5.02Q94.85-3.20 92.67-1.79L92.67-1.79L92.67-1.79Q88 1.22 79.84 1.22L79.84 1.22L79.84 1.22Q71.68 1.22 67.23-3.04L67.23-3.04L67.23-3.04Q62.78-7.30 62.78-14.85L62.78-14.85L62.78-14.85Q62.78-25.54 68.35-33.66L68.35-33.66L68.35-33.66Q72.58-39.68 80.13-42.24L80.13-42.24L80.13-42.24Q84.03-43.52 87.87-43.52L87.87-43.52L87.87-43.52Q91.71-43.52 94.08-43.01L94.08-43.01L94.08-43.01Q96.45-42.50 98.24-41.47L98.24-41.47L98.24-41.47Q102.14-39.23 102.14-35.65L102.14-35.65L102.14-35.65Q102.14-32.38 99.07-29.95L99.07-29.95L99.07-29.95Q96.26-27.78 93.95-27.78L93.95-27.78L93.95-27.78Q91.65-27.78 90.69-28.10L90.69-28.10L90.69-28.10Q90.94-30.40 90.94-31.90L90.94-31.90L90.94-31.90Q90.94-33.41 90.88-34.50L90.88-34.50L90.88-34.50Q90.82-35.58 90.50-36.61L90.50-36.61L90.50-36.61Q89.86-38.98 87.90-38.98L87.90-38.98L87.90-38.98Q85.95-38.98 84-37.15L84-37.15L84-37.15Q82.05-35.33 80.38-32.26L80.38-32.26L80.38-32.26Q76.61-25.28 76.61-17.02L76.61-17.02L76.61-17.02Q76.61-13.06 78.85-10.78L78.85-10.78L78.85-10.78Q81.09-8.51 85.89-8.51L85.89-8.51L85.89-8.51Q89.47-8.51 92.86-10.88L92.86-10.88L92.86-10.88Q94.34-11.90 95.42-13.25ZM115.46 0L101.82 0L109.12-38.91L109.82-42.24L123.52-42.24L115.46 0ZM141.44-3.78L141.44-3.78L141.44-3.78Q139.71 1.28 133.06 1.28L133.06 1.28L133.06 1.28Q128.13 1.28 124.74-4.61L124.74-4.61L124.74-4.61Q121.28-10.50 120.64-20.10L120.64-20.10L120.64-20.10Q127.68-32.96 132.54-38.27L132.54-38.27L132.54-38.27Q137.22-43.33 142.08-43.33L142.08-43.33L142.08-43.33Q144.70-43.33 146.59-41.92L146.59-41.92L146.59-41.92Q148.48-40.51 148.93-38.27L148.93-38.27L148.93-38.27Q146.75-37.38 145.73-36.67L145.73-36.67L145.73-36.67Q143.17-34.75 139.71-30.46L139.71-30.46L133.89-23.49L133.89-23.49Q132.48-21.82 131.90-21.06L131.90-21.06L131.90-21.06Q132.86-15.68 135.74-10.37L135.74-10.37L135.74-10.37Q138.50-5.31 141.44-3.78ZM146.24-0.32L146.24-0.32L154.30-42.24L154.30-42.24Q161.86-42.88 166.72-42.88L166.72-42.88L166.72-42.88Q171.58-42.88 174.72-42.46L174.72-42.46L174.72-42.46Q177.86-42.05 179.97-40.96L179.97-40.96L179.97-40.96Q184.19-38.91 184.19-33.28L184.19-33.28L184.19-33.28Q184.19-30.02 181.38-27.26L181.38-27.26L181.38-27.26Q178.75-24.77 175.87-24.19L175.87-24.19L175.87-24.19Q178.94-23.68 181.12-21.38L181.12-21.38L181.12-21.38Q183.42-18.94 183.42-15.17L183.42-15.17L183.42-15.17Q183.42-7.87 177.98-3.62L177.98-3.62L177.98-3.62Q172.54 0.64 161.86 0.64L161.86 0.64L161.86 0.64Q154.50 0.64 146.24-0.32ZM163.65-20.61L160.45-4.03L160.45-4.03Q161.02-3.97 161.15-3.97L161.15-3.97L161.73-3.97L161.73-3.97Q166.98-3.97 169.22-7.42L169.22-7.42L169.22-7.42Q170.88-10.11 170.88-15.04L170.88-15.04L170.88-15.04Q170.88-17.66 169.18-19.07L169.18-19.07L169.18-19.07Q167.49-20.48 163.65-20.61L163.65-20.61ZM173.38-33.22L173.38-33.22L173.38-33.22Q173.38-38.53 168.26-38.53L168.26-38.53L167.68-38.53L167.68-38.53Q167.42-38.53 167.04-38.46L167.04-38.46L164.48-24.96L165.12-24.96L165.12-24.96Q173.38-25.15 173.38-33.22ZM214.40-9.86L214.40-9.86L214.40-9.86Q215.62-8.32 215.62-5.34L215.62-5.34L215.62-5.34Q215.62-2.37 213.34-0.54L213.34-0.54L213.34-0.54Q211.07 1.28 207.10 1.28L207.10 1.28L207.10 1.28Q204.80 1.28 201.22 0.77L201.22 0.77L201.22 0.77Q194.18-0.32 192.16-0.32L192.16-0.32L192.16-0.32Q190.14-0.32 189.31-0.22L189.31-0.22L189.31-0.22Q188.48-0.13 187.14 0L187.14 0L194.88-42.24L208.90-42.24L202.50-7.04L202.50-7.04Q203.33-6.91 204.10-6.91L204.10-6.91L205.70-6.91L205.70-6.91Q211.07-6.91 214.40-9.86ZM248 1.28L248 1.28L248 1.28Q239.81 1.28 239.04-10.37L239.04-10.37L228.03-10.37L228.03-10.37Q226.75-7.42 225.86-4.86L225.86-4.86L224.19 0L215.23 0L235.39-42.24L249.15-42.24L251.84-11.14L251.84-11.14Q252.48-4.42 255.04-2.43L255.04-2.43L255.04-2.43Q253.18 1.28 248 1.28ZM233.54-23.17L230.02-15.04L238.85-15.04L238.08-31.49L238.08-33.22L233.54-23.17ZM291.46-13.25L291.46-13.25L291.46-13.25Q293.12-12.03 293.12-9.44L293.12-9.44L293.12-9.44Q293.12-6.85 292-5.02L292-5.02L292-5.02Q290.88-3.20 288.70-1.79L288.70-1.79L288.70-1.79Q284.03 1.22 275.87 1.22L275.87 1.22L275.87 1.22Q267.71 1.22 263.26-3.04L263.26-3.04L263.26-3.04Q258.82-7.30 258.82-14.85L258.82-14.85L258.82-14.85Q258.82-25.54 264.38-33.66L264.38-33.66L264.38-33.66Q268.61-39.68 276.16-42.24L276.16-42.24L276.16-42.24Q280.06-43.52 283.90-43.52L283.90-43.52L283.90-43.52Q287.74-43.52 290.11-43.01L290.11-43.01L290.11-43.01Q292.48-42.50 294.27-41.47L294.27-41.47L294.27-41.47Q298.18-39.23 298.18-35.65L298.18-35.65L298.18-35.65Q298.18-32.38 295.10-29.95L295.10-29.95L295.10-29.95Q292.29-27.78 289.98-27.78L289.98-27.78L289.98-27.78Q287.68-27.78 286.72-28.10L286.72-28.10L286.72-28.10Q286.98-30.40 286.98-31.90L286.98-31.90L286.98-31.90Q286.98-33.41 286.91-34.50L286.91-34.50L286.91-34.50Q286.85-35.58 286.53-36.61L286.53-36.61L286.53-36.61Q285.89-38.98 283.94-38.98L283.94-38.98L283.94-38.98Q281.98-38.98 280.03-37.15L280.03-37.15L280.03-37.15Q278.08-35.33 276.42-32.26L276.42-32.26L276.42-32.26Q272.64-25.28 272.64-17.02L272.64-17.02L272.64-17.02Q272.64-13.06 274.88-10.78L274.88-10.78L274.88-10.78Q277.12-8.51 281.92-8.51L281.92-8.51L281.92-8.51Q285.50-8.51 288.90-10.88L288.90-10.88L288.90-10.88Q290.37-11.90 291.46-13.25ZM311.49 0L297.86 0L305.15-38.91L305.86-42.24L319.55-42.24L311.49 0ZM337.47-3.78L337.47-3.78L337.47-3.78Q335.74 1.28 329.09 1.28L329.09 1.28L329.09 1.28Q324.16 1.28 320.77-4.61L320.77-4.61L320.77-4.61Q317.31-10.50 316.67-20.10L316.67-20.10L316.67-20.10Q323.71-32.96 328.58-38.27L328.58-38.27L328.58-38.27Q333.25-43.33 338.11-43.33L338.11-43.33L338.11-43.33Q340.74-43.33 342.62-41.92L342.62-41.92L342.62-41.92Q344.51-40.51 344.96-38.27L344.96-38.27L344.96-38.27Q342.78-37.38 341.76-36.67L341.76-36.67L341.76-36.67Q339.20-34.75 335.74-30.46L335.74-30.46L329.92-23.49L329.92-23.49Q328.51-21.82 327.94-21.06L327.94-21.06L327.94-21.06Q328.90-15.68 331.78-10.37L331.78-10.37L331.78-10.37Q334.53-5.31 337.47-3.78Z" fill="none" stroke="#fff" stroke-width="2.1"></path></g></g></g><style>text {
  font-size: 64px;
  font-family: Arial Black;
  dominant-baseline: central;
  text-anchor: middle;
}</style></svg>